<svg width="1407" height="1000" viewBox="0 0 1407 1000" fill="none" xmlns="http://www.w3.org/2000/svg">
<path d="M210.345 940.24C219.379 969.211 197.732 998.636 167.385 998.636H74.3787C54.6567 998.636 37.2328 985.794 31.3952 966.955L4.17339 879.11C1.45625 870.342 1.48569 860.952 4.25775 852.201L223.905 158.801C229.829 140.099 247.186 127.39 266.804 127.39H360.826C391.292 127.39 412.953 157.03 403.7 186.057L191.392 852.125C188.588 860.923 188.558 870.371 191.307 879.187L210.345 940.24Z" fill="black"/>
<path d="M1375.49 967.329C1369.65 986.167 1352.23 999.009 1332.51 999.009H1239.5C1209.15 999.009 1187.51 969.585 1196.54 940.614L1215.69 879.187C1218.44 870.371 1218.41 860.923 1215.61 852.125L1003.3 186.057C994.048 157.03 1015.71 127.39 1046.17 127.39H1140.2C1159.81 127.39 1177.17 140.099 1183.1 158.801L1402.74 852.201C1405.51 860.952 1405.54 870.342 1402.83 879.11L1375.49 967.329Z" fill="black"/>
<path fill-rule="evenodd" clip-rule="evenodd" d="M486.003 878.324C506.592 878.324 524.554 864.351 529.62 844.396L560.494 722.772C565.559 702.817 583.522 688.844 604.11 688.844H801.609C822.198 688.844 840.16 702.817 845.226 722.772L876.1 844.396C881.165 864.351 899.128 878.324 919.716 878.324H1054.45C1084.9 878.324 1106.56 848.706 1097.33 819.684L846.588 31.3602C840.648 12.684 823.303 0 803.705 0H607.286C587.687 0 570.343 12.684 564.402 31.3603L313.661 819.684C304.43 848.706 326.09 878.324 356.544 878.324H486.003ZM658.59 320.969C670.092 275.763 734.31 275.762 745.812 320.969L786.762 481.925C793.999 510.372 772.504 538.021 743.151 538.021H661.251C631.898 538.021 610.402 510.372 617.64 481.926L658.59 320.969Z" fill="black"/>
</svg>
